<?xml version="1.0" standalone="no"?>
<!DOCTYPE svg PUBLIC "-//W3C//DTD SVG 20010904//EN"
 "http://www.w3.org/TR/2001/REC-SVG-20010904/DTD/svg10.dtd">
<svg version="1.0" xmlns="http://www.w3.org/2000/svg"
 width="512.000000pt" height="512.000000pt" viewBox="0 0 512.000000 512.000000"
 preserveAspectRatio="xMidYMid meet">
<metadata>
Created by potrace 1.11, written by Peter Selinger 2001-2013
</metadata>
<g transform="translate(0.000000,512.000000) scale(0.100000,-0.100000)"
fill="#000000" stroke="none">
<path d="M1210 2551 l0 -1951 385 0 385 0 0 750 0 750 171 0 c106 0 187 -5
213 -12 80 -24 110 -69 491 -724 198 -340 377 -638 399 -661 21 -24 64 -55 95
-70 l56 -28 393 -3 392 -3 -60 98 c-34 54 -233 379 -443 722 -405 661 -451
726 -568 801 -27 18 -49 35 -49 39 0 4 35 21 78 39 239 98 455 295 571 522 97
189 136 374 128 600 -12 316 -104 541 -298 725 -180 170 -419 275 -759 331
-92 15 -200 18 -842 21 l-738 4 0 -1950z m1455 1331 c237 -64 376 -201 421
-414 19 -89 14 -273 -10 -363 -45 -167 -154 -300 -306 -373 -141 -67 -196 -75
-512 -80 l-278 -4 0 632 0 632 303 -4 c269 -4 311 -7 382 -26z"/>
</g>
</svg>
